<?xml version="1.0" standalone="no"?>
<!DOCTYPE svg PUBLIC "-//W3C//DTD SVG 20010904//EN"
 "http://www.w3.org/TR/2001/REC-SVG-20010904/DTD/svg10.dtd">
<svg version="1.0" xmlns="http://www.w3.org/2000/svg"
 width="512.000000pt" height="512.000000pt" viewBox="0 0 512.000000 512.000000"
 preserveAspectRatio="xMidYMid meet">

<g transform="translate(0.000000,512.000000) scale(0.100000,-0.100000)"
fill="#000000" stroke="none">
<path d="M4194 4394 c-22 -8 -54 -27 -71 -42 -33 -28 -1012 -1358 -1057 -1435
-63 -107 -93 -241 -122 -541 -16 -170 -16 -180 0 -211 20 -37 53 -55 99 -55
41 0 482 197 534 238 93 74 198 207 652 825 265 362 492 675 504 695 17 29 22
53 22 112 0 78 -15 120 -59 169 -31 34 -275 223 -315 243 -43 22 -129 23 -187
2z"/>
<path d="M535 3720 c-215 -43 -376 -203 -420 -418 -14 -64 -15 -211 -13 -1095
3 -960 4 -1025 22 -1077 66 -198 220 -346 411 -395 52 -13 301 -15 2035 -15
2180 0 2022 -5 2160 63 92 45 196 150 244 247 69 141 67 105 64 1248 -3 938
-5 1031 -20 1077 -36 105 2 146 -488 -517 -258 -349 -479 -638 -525 -686 -92
-97 -200 -182 -306 -240 -109 -59 -475 -219 -544 -236 -254 -67 -544 113 -604
374 -6 25 -11 75 -11 111 0 91 45 516 65 613 29 138 96 290 169 381 45 55 416
564 416 570 0 9 -2613 3 -2655 -5z m1545 -632 c64 -33 103 -92 108 -167 8
-106 -49 -187 -148 -210 -28 -7 -261 -11 -621 -11 -638 0 -647 1 -706 62 -41
43 -53 76 -53 149 0 63 21 119 57 151 52 47 50 47 703 48 l616 0 44 -22z"/>
</g>
</svg>
