<svg width="20" height="20" viewBox="0 0 20 20" fill="none" xmlns="http://www.w3.org/2000/svg">
<g clip-path="url(#clip0_1854_34177)">
<path d="M13.6161 7.76862C13.9528 7.45483 13.9713 6.92752 13.6575 6.59084C13.3437 6.25416 12.8164 6.23561 12.4798 6.5494L10.0413 8.82209L7.76862 6.38365C7.45483 6.04697 6.92752 6.02842 6.59084 6.34222C6.25416 6.65601 6.23561 7.18332 6.5494 7.52L8.82209 9.95844L6.38365 12.2311C6.04697 12.5449 6.02842 13.0722 6.34222 13.4089C6.65601 13.7456 7.18332 13.7641 7.52 13.4503L9.95844 11.1777L12.2311 13.6161C12.5449 13.9528 13.0722 13.9713 13.4089 13.6575C13.7456 13.3437 13.7641 12.8164 13.4503 12.4798L11.1777 10.0413L13.6161 7.76862Z" fill="#D43232"/>
<path fill-rule="evenodd" clip-rule="evenodd" d="M0.833252 9.99992C0.833252 4.93731 4.93731 0.833252 9.99992 0.833252C15.0625 0.833252 19.1666 4.93731 19.1666 9.99992C19.1666 15.0625 15.0625 19.1666 9.99992 19.1666C4.93731 19.1666 0.833252 15.0625 0.833252 9.99992ZM9.99992 17.4999C5.85778 17.4999 2.49992 14.1421 2.49992 9.99992C2.49992 5.85778 5.85778 2.49992 9.99992 2.49992C14.1421 2.49992 17.4999 5.85778 17.4999 9.99992C17.4999 14.1421 14.1421 17.4999 9.99992 17.4999Z" fill="#D43232"/>
</g>
<defs>
<clipPath id="clip0_1854_34177">
<rect width="20" height="20" fill="white"/>
</clipPath>
</defs>
</svg>
