<svg width="21" height="20" viewBox="0 0 21 20" fill="none" xmlns="http://www.w3.org/2000/svg">
<path d="M8.82128 13.5947L5.28575 10.0591L6.46426 8.88061L8.82128 11.2376L13.5353 6.52359L14.7138 7.7021L8.82128 13.5947Z" fill="#14A34D"/>
<path fill-rule="evenodd" clip-rule="evenodd" d="M1.11908 9.99992C1.11908 4.93731 5.22314 0.833252 10.2857 0.833252C15.3484 0.833252 19.4524 4.93731 19.4524 9.99992C19.4524 15.0625 15.3484 19.1666 10.2857 19.1666C5.22314 19.1666 1.11908 15.0625 1.11908 9.99992ZM10.2857 17.4999C6.14361 17.4999 2.78575 14.1421 2.78575 9.99992C2.78575 5.85778 6.14361 2.49992 10.2857 2.49992C14.4279 2.49992 17.7857 5.85778 17.7857 9.99992C17.7857 14.1421 14.4279 17.4999 10.2857 17.4999Z" fill="#14A34D"/>
</svg>
