<?xml version="1.0" standalone="no"?>
<!DOCTYPE svg PUBLIC "-//W3C//DTD SVG 20010904//EN"
 "http://www.w3.org/TR/2001/REC-SVG-20010904/DTD/svg10.dtd">
<svg version="1.0" xmlns="http://www.w3.org/2000/svg"
 width="512.000000pt" height="512.000000pt" viewBox="0 0 512.000000 512.000000"
 preserveAspectRatio="xMidYMid meet">

<g transform="translate(0.000000,512.000000) scale(0.100000,-0.100000)"
fill="#000000" stroke="none">
<path d="M2415 5113 c-472 -56 -856 -288 -1111 -668 -115 -172 -188 -351 -231
-560 -27 -134 -24 -443 5 -578 67 -305 198 -544 416 -763 178 -177 368 -296
590 -369 186 -60 250 -70 476 -70 178 0 219 3 309 23 302 68 536 197 757 417
215 215 341 441 410 740 25 109 28 138 28 315 1 151 -3 215 -17 285 -63 310
-203 572 -421 790 -243 242 -530 385 -866 430 -96 13 -270 17 -345 8z m295
-556 l0 -122 66 -18 c119 -31 216 -101 289 -210 42 -61 75 -161 75 -223 l0
-45 -147 3 -147 3 -8 41 c-5 24 -23 58 -44 82 -50 59 -110 75 -263 70 -100 -3
-122 -7 -158 -27 -128 -73 -136 -236 -17 -327 37 -29 40 -29 208 -35 180 -6
229 -15 311 -56 201 -101 311 -332 261 -547 -46 -196 -191 -334 -398 -380
l-28 -6 0 -125 0 -125 -150 0 -150 0 0 124 0 124 -52 12 c-197 47 -346 205
-377 399 -6 35 -8 68 -5 72 3 5 70 9 148 9 l144 0 11 -45 c13 -52 62 -112 108
-131 22 -10 78 -14 173 -14 120 0 146 3 179 20 138 70 147 254 16 335 -48 29
-50 30 -229 36 -161 5 -187 8 -236 29 -165 71 -267 190 -306 356 -39 167 23
358 154 475 53 48 169 105 231 115 l41 7 0 123 0 124 150 0 150 0 0 -123z"/>
<path d="M1560 1765 l0 -325 -255 0 -255 0 0 -107 0 -108 755 -613 755 -612
755 612 755 613 0 107 0 108 -255 0 -255 0 0 325 c0 179 -3 325 -6 325 -4 0
-32 -16 -64 -35 -165 -100 -389 -186 -592 -227 -98 -20 -143 -23 -338 -23
-195 0 -240 3 -338 23 -203 41 -427 127 -592 227 -32 19 -60 35 -64 35 -3 0
-6 -146 -6 -325z"/>
</g>
</svg>
