<?xml version="1.0" standalone="no"?>
<!DOCTYPE svg PUBLIC "-//W3C//DTD SVG 20010904//EN"
 "http://www.w3.org/TR/2001/REC-SVG-20010904/DTD/svg10.dtd">
<svg version="1.0" xmlns="http://www.w3.org/2000/svg"
 width="512.000000pt" height="512.000000pt" viewBox="0 0 512.000000 512.000000"
 preserveAspectRatio="xMidYMid meet">

<g transform="translate(0.000000,512.000000) scale(0.100000,-0.100000)"
fill="#000000" stroke="none">
<path d="M555 4673 c-44 -23 -84 -63 -106 -105 -18 -35 -19 -64 -19 -513 0
-407 2 -481 15 -513 64 -152 273 -172 370 -34 l30 44 3 206 3 206 577 -576
c317 -317 591 -583 608 -592 87 -43 175 -28 245 43 71 70 86 158 43 245 -9 17
-275 291 -592 608 l-576 577 206 3 206 3 44 30 c138 97 118 306 -34 370 -56
23 -978 22 -1023 -2z"/>
<path d="M3540 4674 c-167 -72 -165 -318 2 -389 29 -12 79 -15 230 -15 l193 0
-577 -577 c-317 -318 -583 -592 -592 -609 -43 -87 -28 -175 43 -245 70 -71
158 -86 245 -43 17 9 291 275 609 592 l577 577 0 -193 c0 -151 3 -201 15 -230
64 -152 273 -172 370 -34 l30 44 3 489 c2 437 1 492 -14 521 -23 46 -63 87
-106 109 -35 18 -64 19 -515 19 -404 -1 -483 -3 -513 -16z"/>
<path d="M2065 2335 c-22 -8 -42 -15 -45 -15 -2 0 -267 -262 -587 -582 l-583
-583 0 193 c0 151 -3 201 -15 230 -71 169 -319 169 -390 0 -13 -32 -15 -106
-15 -513 0 -418 2 -480 16 -508 23 -45 63 -86 107 -108 36 -19 59 -19 526 -17
l489 3 44 30 c138 97 118 306 -34 370 -29 12 -79 15 -230 15 l-193 0 577 578
c317 317 583 591 591 607 42 84 25 184 -40 246 -21 20 -47 41 -59 47 -38 20
-117 23 -159 7z"/>
<path d="M2915 2336 c-54 -20 -121 -92 -135 -147 -13 -48 -7 -106 16 -153 9
-17 275 -291 592 -608 l577 -578 -193 0 c-151 0 -201 -3 -230 -15 -169 -71
-169 -319 0 -390 32 -13 106 -15 513 -15 449 0 478 1 513 19 43 22 83 63 106
108 14 28 16 90 16 508 0 407 -2 481 -15 513 -71 169 -319 169 -390 0 -12 -29
-15 -79 -15 -230 l0 -193 -577 577 c-318 317 -593 584 -611 593 -47 23 -120
28 -167 11z"/>
</g>
</svg>
