<svg width="32" height="32" viewBox="0 0 32 32" fill="none" xmlns="http://www.w3.org/2000/svg">
<g clip-path="url(#clip0_1747_17984)">
<path d="M31.344 0.00376943C25.0974 -0.108231 17.9734 3.1571 13.464 8.22244C9.10757 8.31382 4.95432 10.0824 1.86937 13.1598C1.78094 13.2469 1.71861 13.3571 1.68942 13.4778C1.66022 13.5985 1.66532 13.7249 1.70413 13.8429C1.74294 13.9608 1.81392 14.0656 1.90908 14.1454C2.00424 14.2252 2.11979 14.2768 2.2427 14.2944L7.38137 15.0304L6.7467 15.7411C6.63322 15.8683 6.57274 16.0341 6.5777 16.2044C6.58266 16.3748 6.65268 16.5368 6.77337 16.6571L15.3427 25.2264C15.4631 25.3472 15.6252 25.4172 15.7956 25.4219C15.9661 25.4266 16.1319 25.3657 16.2587 25.2518L16.9694 24.6171L17.7054 29.7558C17.7414 30.0064 17.9387 30.1904 18.1774 30.2704C18.239 30.2902 18.3033 30.3001 18.368 30.2998C18.5612 30.297 18.7459 30.2202 18.884 30.0851C21.9307 27.0384 23.6974 22.8424 23.7787 18.5331C28.8494 14.0144 32.1414 6.8931 31.996 0.654436C31.9913 0.483131 31.9211 0.320163 31.7998 0.199111C31.6785 0.0780577 31.5154 0.00814218 31.344 0.00376943ZM25.2 11.5131C24.5507 12.1624 23.6974 12.4878 22.8427 12.4878C21.988 12.4878 21.1347 12.1624 20.4854 11.5131C19.8617 10.8871 19.5115 10.0394 19.5115 9.15577C19.5115 8.2721 19.8617 7.42445 20.4854 6.79844C21.7854 5.49844 23.9 5.49844 25.2 6.79844C26.5 8.09844 26.5 10.2144 25.2 11.5131ZM3.63204 22.5398C2.20537 23.9664 0.246703 30.4118 0.0280365 31.1411C-0.00578499 31.2564 -0.00794231 31.3787 0.021791 31.4951C0.0515244 31.6115 0.112052 31.7178 0.19702 31.8028C0.281988 31.8878 0.388263 31.9483 0.504689 31.978C0.621115 32.0077 0.743398 32.0056 0.858703 31.9718C1.58804 31.7531 8.03337 29.7944 9.46004 28.3678C10.2318 27.5944 10.6653 26.5464 10.6653 25.4538C10.6653 24.3612 10.2318 23.3132 9.46004 22.5398C8.68646 21.7683 7.63854 21.3351 6.54604 21.3351C5.45353 21.3351 4.40561 21.7683 3.63204 22.5398Z" fill="white"/>
</g>
<defs>
<clipPath id="clip0_1747_17984">
<rect width="32" height="32" fill="white"/>
</clipPath>
</defs>
</svg>
